<svg xmlns="http://www.w3.org/2000/svg" fill="none" viewBox="0 0 32 16">
  <path fill="#282642" d="M7.12 15.2c-1.23 0-2.3-.2-3.2-.6-.9-.4-1.61-1-2.12-1.8a6.18 6.18 0 0 1-.84-3.04 73.98 73.98 0 0 1 0-3.46c.05-1.2.33-2.2.84-3.02a4.84 4.84 0 0 1 2.14-1.86A7.6 7.6 0 0 1 7.12.8c1.2 0 2.25.2 3.16.62a4.82 4.82 0 0 1 2.16 1.86c.52.81.8 1.82.84 3.02a38.27 38.27 0 0 1 0 3.46 6.18 6.18 0 0 1-.84 3.04c-.5.8-1.21 1.4-2.12 1.8-.9.4-1.97.6-3.2.6Zm0-2.88c.7 0 1.28-.21 1.72-.64.45-.43.7-1.1.72-2.04a36.65 36.65 0 0 0 0-3.28 3.45 3.45 0 0 0-.36-1.52c-.2-.4-.48-.7-.84-.88a2.66 2.66 0 0 0-1.24-.28c-.45 0-.86.1-1.22.28-.36.19-.65.48-.86.88-.21.39-.33.9-.36 1.52a68.15 68.15 0 0 0 0 3.28c.04.93.28 1.61.72 2.04.44.43 1.01.64 1.72.64ZM15.34 15a.49.49 0 0 1-.36-.14.49.49 0 0 1-.14-.36v-13c0-.15.04-.27.14-.36.1-.1.21-.14.36-.14h6.1a7.1 7.1 0 0 1 2.82.48c.73.32 1.27.78 1.62 1.38.36.59.54 1.29.54 2.1a2.87 2.87 0 0 1-.94 2.18c-.26.24-.5.41-.72.52.5.24.95.63 1.34 1.18.4.55.6 1.19.6 1.92a3.81 3.81 0 0 1-2.32 3.74c-.75.33-1.67.5-2.76.5h-6.28Zm3.08-2.6h2.8c.57 0 1-.17 1.3-.5.3-.33.44-.71.44-1.14 0-.47-.16-.86-.46-1.18-.3-.32-.72-.48-1.28-.48h-2.8v3.3Zm0-5.84h2.62c.54 0 .95-.14 1.22-.42.28-.28.42-.64.42-1.08 0-.43-.14-.77-.42-1.04-.27-.28-.68-.42-1.22-.42h-2.62v2.96Z"/>
  <path fill="#FF4C61" d="M28.3 15a.49.49 0 0 1-.36-.14.49.49 0 0 1-.14-.36v-2.54c0-.13.05-.25.14-.34.1-.1.21-.16.36-.16h2.52c.15 0 .27.05.36.16.1.1.16.2.16.34v2.54c0 .15-.05.27-.16.36-.1.1-.21.14-.36.14H28.3Z"/>
</svg>
