<svg xmlns="http://www.w3.org/2000/svg" fill="none" viewBox="0 0 64 64">
  <path fill="#E6E7E8" d="M61 11v42a4 4 0 0 1-4 4H11a4 4 0 0 1-4-4V11a4 4 0 0 1 4-4h46a4 4 0 0 1 4 4Z"/>
  <path fill="#D8D7DA" d="M59 9v42a4 4 0 0 1-4 4H9a4 4 0 0 1-1.6-.4A4 4 0 0 1 7 53V11a4 4 0 0 1 4-4h46a4 4 0 0 1 1.6.4c.3.5.4 1 .4 1.6Z"/>
  <path fill="#FF6243" d="M57 7v4H3V7a4 4 0 0 1 4-4h46a4 4 0 0 1 4 4Z"/>
  <path fill="#E6E7E8" d="M57 11v38a4 4 0 0 1-4 4H7a4 4 0 0 1-4-4V11h54Z"/>
  <path fill="#D8D7DA" d="m45 55.5.8 1.5h-4.5a2 2 0 0 1 1-2.2 2 2 0 0 1 2.7.7ZM61 53a4 4 0 0 1-4 4H47V47a2 2 0 0 1 2-2 2 2 0 0 1 2 2v6a2 2 0 0 1 2-2 2 2 0 0 1 2 2v1a2 2 0 0 1 2.8-1.8 2 2 0 0 1 .8.6c.3.3.4.8.4 1.2v1a2 2 0 0 1 2-2Z"/>
  <path fill="#FFC477" d="M61 53v9H43.3l-3-5-.8-1.5a2 2 0 1 1 3.5-2l2 3.5V45a2 2 0 0 1 2-2 2 2 0 0 1 2 2v6a2 2 0 0 1 2-2 2 2 0 0 1 2 2v1a2 2 0 0 1 2.8-1.8 2 2 0 0 1 .8.6c.3.3.4.8.4 1.2v1a2 2 0 0 1 2-2 2 2 0 0 1 2 2Z"/>
  <path fill="#BDDBFF" d="M36.7 34.7a13 13 0 1 1-25.4-5.4 13 13 0 0 1 25.4 5.4Z"/>
  <path fill="#D8D7DA" d="M43 34a17 17 0 0 1-15 16.9V53h-4v-2.1A17 17 0 1 1 43 34Z"/>
  <path fill="#1E81CE" d="M27 57v4h-6v-8a1 1 0 0 1 1-1h4a1 1 0 0 1 1 1v4Z"/>
  <path fill="#5AAAE7" d="M26 47.9V52h-4v-4.1h4Z"/>
  <path fill="#3D9AE2" d="M26 47.9v3h-4v-3h4Z"/>
  <path fill="#5AAAE7" d="M41 32a17 17 0 1 1-34 0 17 17 0 0 1 34 0Z"/>
  <path fill="#E6E7E8" d="M24 45a13 13 0 1 0 0-26 13 13 0 0 0 0 26Z"/>
  <path fill="#FF9811" d="M27 36a1 1 0 0 1-.7-.3L24 33.4l-2.3 2.3A1 1 0 0 1 20 35v-6h2v3.6l1.3-1.3a1 1 0 0 1 1.4 0l1.3 1.3V29h2v6a1 1 0 0 1-1 1ZM17 36a1 1 0 0 1-.7-.3L14 33.4l-2.3 2.3A1 1 0 0 1 10 35v-6h2v3.6l1.3-1.3a1 1 0 0 1 1.4 0l1.3 1.3V29h2v6a1 1 0 0 1-1 1ZM37 36a1 1 0 0 1-.7-.3L34 33.4l-2.3 2.3A1 1 0 0 1 30 35v-6h2v3.6l1.3-1.3a1 1 0 0 1 1.4 0l1.3 1.3V29h2v6a1 1 0 0 1-1 1Z"/>
  <path fill="#FFA733" d="M45 14h-2v2h2v-2ZM53 14h-6v2h6v-2ZM53 18H43v2h10v-2ZM49 22h-6v2h6v-2ZM53 22h-2v2h2v-2Z"/>
  <path fill="#ED1C24" d="M8 6H6v2h2V6ZM12 6h-2v2h2V6ZM16 6h-2v2h2V6Z"/>
  <path fill="#FFB655" d="M58 52a1 1 0 1 0-2 0v3a1 1 0 1 0 2 0v-3ZM54 51a1 1 0 1 0-2 0v3a1 1 0 1 0 2 0v-3ZM50 51a1 1 0 1 0-2 0v3a1 1 0 1 0 2 0v-3Z"/>
</svg>
